<?xml version="1.0" encoding="iso-8859-1"?>
<!-- Generator: Adobe Illustrator 19.0.0, SVG Export Plug-In . SVG Version: 6.00 Build 0)  -->
<svg version="1.1" id="Layer_1" xmlns="http://www.w3.org/2000/svg" xmlns:xlink="http://www.w3.org/1999/xlink" x="0px" y="0px"
	 viewBox="0 0 512 512" style="enable-background:new 0 0 512 512;" xml:space="preserve">
<polygon style="fill:#F9F0B5;" points="255.999,7.898 36.62,114.379 36.62,503.557 475.378,503.557 475.378,114.379 "/>
<polygon style="fill:#FEBB8E;" points="255.999,33.32 52.961,131.869 52.961,375.722 345.08,487.217 459.038,487.217 
	459.038,131.87 "/>
<path style="fill:#BF7447;" d="M396.535,202.796h-62.92c0-48.144-37.944-87.237-86.088-87.237s-86.088,39.067-86.088,87.211
	l38.301,83.905l-38.301,30.973L52.961,374.176v109.236h281.841V285.998h20.369c22.955,0,41.569-18.614,41.569-41.62
	C396.739,221.436,396.535,202.796,396.535,202.796z"/>
<path style="fill:#A0613C;" d="M203.959,160.838c11.718,0.598,31.805,19.627,31.805,43.022v114.797
	c0,23.395-20.087,42.424-31.805,43.022c-0.182,0.011-0.363,0.011-0.554,0.011c-23.843,0-43.054-19.264-43.054-43.033l0.011-114.797
	c0-23.769,19.264-43.033,43.044-43.033C203.597,160.827,203.779,160.827,203.959,160.838z"/>
<path style="fill:#804E30;" d="M246.437,203.86v114.797c0,23.587-18.966,42.733-42.477,43.022
	c11.718-0.598,21.133-19.627,21.133-43.022V203.86c0-23.395-9.413-42.424-21.133-43.022
	C227.472,161.125,246.437,180.273,246.437,203.86z"/>
<g>
	<path style="fill:#1D2328;" d="M178.914,135.502c-17.735,18.057-27.502,42.138-27.502,67.806V313.98l-53.399,27.506
		c-4.011,2.066-5.588,6.993-3.522,11.005c1.45,2.814,4.308,4.43,7.27,4.43c1.259,0,2.538-0.292,3.734-0.909l47.48-24.457
		c5.634,22.332,25.887,38.913,49.943,38.913c28.401,0,51.507-23.105,51.507-51.507V201.961c0-4.512-3.658-8.17-8.17-8.17
		s-8.17,3.658-8.17,8.17v117.001c0,19.391-15.775,35.167-35.167,35.167c-19.391,0-35.166-15.775-35.166-35.167V203.309
		c0-43.914,35.217-79.64,78.503-79.64c43.287,0,78.503,35.735,78.503,79.661c0,4.512,3.658,8.17,8.17,8.17h55.809
		c0.059,7.632,0.133,19.934,0.133,33.694c0,18.602-15.106,33.734-33.673,33.734h-21.074c-4.512,0-8.17,3.658-8.17,8.17v184.051
		c0,4.512,3.658,8.17,8.17,8.17c4.512,0,8.17-3.658,8.17-8.17V295.267h12.903c27.577,0,50.014-22.464,50.014-50.075
		c0-22.879-0.203-41.765-0.205-41.952c-0.049-4.477-3.692-8.082-8.17-8.082h-56.069c-1.846-22.578-11.329-43.512-27.169-59.645
		c-17.845-18.176-41.761-28.185-67.343-28.185C220.674,107.328,196.758,117.334,178.914,135.502z"/>
	<path style="fill:#1D2328;" d="M500.836,117.926L373.858,56.295V8.17c0-4.512-3.658-8.17-8.17-8.17s-8.17,3.658-8.17,8.17v40.193
		L259.567,0.82c-2.253-1.094-4.881-1.094-7.135,0L11.163,117.927c-4.06,1.971-5.753,6.859-3.782,10.918
		c1.971,4.059,6.858,5.753,10.918,3.782l10.153-4.928V503.83c0,4.512,3.658,8.17,8.17,8.17h438.758c4.512,0,8.17-3.658,8.17-8.17
		V127.698l10.153,4.928c1.149,0.558,2.364,0.821,3.562,0.821c3.031,0,5.944-1.694,7.355-4.605
		C506.59,124.784,504.896,119.896,500.836,117.926z M467.208,495.66H44.791V119.767L255.999,17.252l211.209,102.515V495.66z"/>
</g>
<g>
</g>
<g>
</g>
<g>
</g>
<g>
</g>
<g>
</g>
<g>
</g>
<g>
</g>
<g>
</g>
<g>
</g>
<g>
</g>
<g>
</g>
<g>
</g>
<g>
</g>
<g>
</g>
<g>
</g>
</svg>
